<?xml version="1.0" encoding="utf-8"?>
<!-- Generator: Adobe Illustrator 16.0.0, SVG Export Plug-In . SVG Version: 6.00 Build 0)  -->
<!DOCTYPE svg PUBLIC "-//W3C//DTD SVG 1.1//EN" "http://www.w3.org/Graphics/SVG/1.1/DTD/svg11.dtd">
<svg version="1.1" id="Layer_1" xmlns="http://www.w3.org/2000/svg" xmlns:xlink="http://www.w3.org/1999/xlink" x="0px" y="0px"
	 width="36px" height="35px" viewBox="0 0 36 35" enable-background="new 0 0 36 35" xml:space="preserve">
<title>Oval 1 Copy</title>
<desc>Created with Sketch.</desc>
<g id="Page-1">
	<path fill="#181818" d="M18,34.668c-9.55,0-17.32-7.701-17.32-17.167S8.45,0.333,18,0.333c9.551,0,17.32,7.702,17.32,17.168
		S27.551,34.668,18,34.668z M18,1.333C9.001,1.333,1.68,8.585,1.68,17.5c0,8.915,7.321,16.167,16.32,16.167S34.32,26.415,34.32,17.5
		C34.32,8.585,26.999,1.333,18,1.333z"/>
</g>
<g id="Page-1_1_">
	<path id="Shape" fill="#0C0C0C" d="M17.999,11.024c-4.356,0-8.077,2.686-9.584,6.477c1.507,3.791,5.228,6.476,9.584,6.476
		s8.078-2.686,9.587-6.476C26.077,13.709,22.355,11.024,17.999,11.024L17.999,11.024z M17.999,21.816
		c-2.405,0-4.356-1.934-4.356-4.316c0-2.383,1.951-4.317,4.356-4.317c2.406,0,4.356,1.934,4.356,4.317
		C22.355,19.883,20.405,21.816,17.999,21.816L17.999,21.816z M17.999,14.91c-1.446,0-2.612,1.157-2.612,2.591
		c0,1.431,1.166,2.589,2.612,2.589c1.448,0,2.613-1.158,2.613-2.589C20.612,16.067,19.447,14.91,17.999,14.91L17.999,14.91z"/>
</g>
</svg>
